<svg width="400" height="240" viewBox="0 0 400 240" fill="none" xmlns="http://www.w3.org/2000/svg">
<rect x="115.474" y="31.0386" width="97" height="147" rx="2.5" transform="rotate(-10 115.474 31.0386)" fill="#30433D" stroke="white" stroke-width="3"/>
<rect x="151.5" y="1.5" width="97" height="147" rx="2.5" fill="#009264" stroke="white" stroke-width="3"/>
<rect x="201" y="14.1947" width="97" height="147" rx="2.5" transform="rotate(10 201 14.1947)" fill="#FF501C" stroke="white" stroke-width="3"/>
<mask id="path-4-outside-1_435_11" maskUnits="userSpaceOnUse" x="0" y="185" width="402" height="38" fill="black">
<rect fill="white" y="185" width="402" height="38"/>
<path d="M12.096 187.16V221H2.688V187.16H12.096ZM48.7976 221H39.3896L26.8616 202.088V221H17.4536V187.16H26.8616L39.3896 206.312V187.16H48.7976V221Z"/>
<path d="M93.6608 187.16V221H84.2528V202.328L77.8688 221H69.9968L63.5648 202.184V221H54.1568V187.16H65.5328L74.0288 209.144L82.3328 187.16H93.6608ZM108.424 194.696V200.216H119.224V207.368H108.424V213.464H120.664V221H99.0161V187.16H120.664V194.696H108.424ZM150.801 187.16V194.648H141.777V221H132.369V194.648H123.441V187.16H150.801ZM175.69 215.48H163.69L161.866 221H151.978L164.314 187.16H175.162L187.45 221H177.514L175.69 215.48ZM173.338 208.28L169.69 197.336L166.09 208.28H173.338Z"/>
<path d="M239.208 187.16V221H229.8V202.328L223.416 221H215.544L209.112 202.184V221H199.704V187.16H211.08L219.576 209.144L227.88 187.16H239.208ZM265.971 215.48H253.971L252.147 221H242.259L254.595 187.16H265.443L277.731 221H267.795L265.971 215.48ZM263.619 208.28L259.971 197.336L256.371 208.28H263.619ZM297.933 221L291.213 208.52H290.205V221H280.797V187.16H295.629C298.349 187.16 300.653 187.64 302.541 188.6C304.429 189.528 305.853 190.824 306.813 192.488C307.773 194.12 308.253 195.96 308.253 198.008C308.253 200.312 307.613 202.344 306.333 204.104C305.085 205.832 303.245 207.064 300.813 207.8L308.445 221H297.933ZM290.205 202.088H294.861C296.141 202.088 297.101 201.784 297.741 201.176C298.381 200.568 298.701 199.688 298.701 198.536C298.701 197.448 298.365 196.6 297.693 195.992C297.053 195.352 296.109 195.032 294.861 195.032H290.205V202.088ZM332.548 221L321.94 206.168V221H312.532V187.16H321.94V201.752L332.452 187.16H343.3L330.868 203.576L343.924 221H332.548ZM356.768 194.696V200.216H367.568V207.368H356.768V213.464H369.008V221H347.36V187.16H369.008V194.696H356.768ZM399.145 187.16V194.648H390.121V221H380.713V194.648H371.785V187.16H399.145Z"/>
</mask>
<path d="M12.096 187.16V221H2.688V187.16H12.096ZM48.7976 221H39.3896L26.8616 202.088V221H17.4536V187.16H26.8616L39.3896 206.312V187.16H48.7976V221Z" fill="#009264"/>
<path d="M93.6608 187.16V221H84.2528V202.328L77.8688 221H69.9968L63.5648 202.184V221H54.1568V187.16H65.5328L74.0288 209.144L82.3328 187.16H93.6608ZM108.424 194.696V200.216H119.224V207.368H108.424V213.464H120.664V221H99.0161V187.16H120.664V194.696H108.424ZM150.801 187.16V194.648H141.777V221H132.369V194.648H123.441V187.16H150.801ZM175.69 215.48H163.69L161.866 221H151.978L164.314 187.16H175.162L187.45 221H177.514L175.69 215.48ZM173.338 208.28L169.69 197.336L166.09 208.28H173.338Z" fill="#FF501C"/>
<path d="M239.208 187.16V221H229.8V202.328L223.416 221H215.544L209.112 202.184V221H199.704V187.16H211.08L219.576 209.144L227.88 187.16H239.208ZM265.971 215.48H253.971L252.147 221H242.259L254.595 187.16H265.443L277.731 221H267.795L265.971 215.48ZM263.619 208.28L259.971 197.336L256.371 208.28H263.619ZM297.933 221L291.213 208.52H290.205V221H280.797V187.16H295.629C298.349 187.16 300.653 187.64 302.541 188.6C304.429 189.528 305.853 190.824 306.813 192.488C307.773 194.12 308.253 195.96 308.253 198.008C308.253 200.312 307.613 202.344 306.333 204.104C305.085 205.832 303.245 207.064 300.813 207.8L308.445 221H297.933ZM290.205 202.088H294.861C296.141 202.088 297.101 201.784 297.741 201.176C298.381 200.568 298.701 199.688 298.701 198.536C298.701 197.448 298.365 196.6 297.693 195.992C297.053 195.352 296.109 195.032 294.861 195.032H290.205V202.088ZM332.548 221L321.94 206.168V221H312.532V187.16H321.94V201.752L332.452 187.16H343.3L330.868 203.576L343.924 221H332.548ZM356.768 194.696V200.216H367.568V207.368H356.768V213.464H369.008V221H347.36V187.16H369.008V194.696H356.768ZM399.145 187.16V194.648H390.121V221H380.713V194.648H371.785V187.16H399.145Z" fill="#30433D"/>
<path d="M12.096 187.16H14.096V185.16H12.096V187.16ZM12.096 221V223H14.096V221H12.096ZM2.688 221H0.688V223H2.688V221ZM2.688 187.16V185.16H0.688V187.16H2.688ZM10.096 187.16V221H14.096V187.16H10.096ZM12.096 219H2.688V223H12.096V219ZM4.688 221V187.16H0.688V221H4.688ZM2.688 189.16H12.096V185.16H2.688V189.16ZM48.7976 221V223H50.7976V221H48.7976ZM39.3896 221L37.7223 222.105L38.3155 223H39.3896V221ZM26.8616 202.088L28.529 200.983L24.8616 195.447V202.088H26.8616ZM26.8616 221V223H28.8616V221H26.8616ZM17.4536 221H15.4536V223H17.4536V221ZM17.4536 187.16V185.16H15.4536V187.16H17.4536ZM26.8616 187.16L28.5353 186.065L27.9432 185.16H26.8616V187.16ZM39.3896 206.312L37.7159 207.407L41.3896 213.023V206.312H39.3896ZM39.3896 187.16V185.16H37.3896V187.16H39.3896ZM48.7976 187.16H50.7976V185.16H48.7976V187.16ZM48.7976 219H39.3896V223H48.7976V219ZM41.057 219.895L28.529 200.983L25.1943 203.193L37.7223 222.105L41.057 219.895ZM24.8616 202.088V221H28.8616V202.088H24.8616ZM26.8616 219H17.4536V223H26.8616V219ZM19.4536 221V187.16H15.4536V221H19.4536ZM17.4536 189.16H26.8616V185.16H17.4536V189.16ZM25.1879 188.255L37.7159 207.407L41.0633 205.217L28.5353 186.065L25.1879 188.255ZM41.3896 206.312V187.16H37.3896V206.312H41.3896ZM39.3896 189.16H48.7976V185.16H39.3896V189.16ZM46.7976 187.16V221H50.7976V187.16H46.7976ZM93.6608 187.16H95.6608V185.16H93.6608V187.16ZM93.6608 221V223H95.6608V221H93.6608ZM84.2528 221H82.2528V223H84.2528V221ZM84.2528 202.328H86.2528L82.3603 201.681L84.2528 202.328ZM77.8688 221V223H79.2986L79.7612 221.647L77.8688 221ZM69.9968 221L68.1043 221.647L68.5668 223H69.9968V221ZM63.5648 202.184L65.4572 201.537L61.5648 202.184H63.5648ZM63.5648 221V223H65.5648V221H63.5648ZM54.1568 221H52.1568V223H54.1568V221ZM54.1568 187.16V185.16H52.1568V187.16H54.1568ZM65.5328 187.16L67.3983 186.439L66.904 185.16H65.5328V187.16ZM74.0288 209.144L72.1632 209.865L74.0501 214.747L75.8997 209.851L74.0288 209.144ZM82.3328 187.16V185.16H80.9503L80.4618 186.453L82.3328 187.16ZM91.6608 187.16V221H95.6608V187.16H91.6608ZM93.6608 219H84.2528V223H93.6608V219ZM86.2528 221V202.328H82.2528V221H86.2528ZM82.3603 201.681L75.9763 220.353L79.7612 221.647L86.1452 202.975L82.3603 201.681ZM77.8688 219H69.9968V223H77.8688V219ZM71.8892 220.353L65.4572 201.537L61.6723 202.831L68.1043 221.647L71.8892 220.353ZM61.5648 202.184V221H65.5648V202.184H61.5648ZM63.5648 219H54.1568V223H63.5648V219ZM56.1568 221V187.16H52.1568V221H56.1568ZM54.1568 189.16H65.5328V185.16H54.1568V189.16ZM63.6672 187.881L72.1632 209.865L75.8943 208.423L67.3983 186.439L63.6672 187.881ZM75.8997 209.851L84.2037 187.867L80.4618 186.453L72.1578 208.437L75.8997 209.851ZM82.3328 189.16H93.6608V185.16H82.3328V189.16ZM108.424 194.696V192.696H106.424V194.696H108.424ZM108.424 200.216H106.424V202.216H108.424V200.216ZM119.224 200.216H121.224V198.216H119.224V200.216ZM119.224 207.368V209.368H121.224V207.368H119.224ZM108.424 207.368V205.368H106.424V207.368H108.424ZM108.424 213.464H106.424V215.464H108.424V213.464ZM120.664 213.464H122.664V211.464H120.664V213.464ZM120.664 221V223H122.664V221H120.664ZM99.0161 221H97.0161V223H99.0161V221ZM99.0161 187.16V185.16H97.0161V187.16H99.0161ZM120.664 187.16H122.664V185.16H120.664V187.16ZM120.664 194.696V196.696H122.664V194.696H120.664ZM106.424 194.696V200.216H110.424V194.696H106.424ZM108.424 202.216H119.224V198.216H108.424V202.216ZM117.224 200.216V207.368H121.224V200.216H117.224ZM119.224 205.368H108.424V209.368H119.224V205.368ZM106.424 207.368V213.464H110.424V207.368H106.424ZM108.424 215.464H120.664V211.464H108.424V215.464ZM118.664 213.464V221H122.664V213.464H118.664ZM120.664 219H99.0161V223H120.664V219ZM101.016 221V187.16H97.0161V221H101.016ZM99.0161 189.16H120.664V185.16H99.0161V189.16ZM118.664 187.16V194.696H122.664V187.16H118.664ZM120.664 192.696H108.424V196.696H120.664V192.696ZM150.801 187.16H152.801V185.16H150.801V187.16ZM150.801 194.648V196.648H152.801V194.648H150.801ZM141.777 194.648V192.648H139.777V194.648H141.777ZM141.777 221V223H143.777V221H141.777ZM132.369 221H130.369V223H132.369V221ZM132.369 194.648H134.369V192.648H132.369V194.648ZM123.441 194.648H121.441V196.648H123.441V194.648ZM123.441 187.16V185.16H121.441V187.16H123.441ZM148.801 187.16V194.648H152.801V187.16H148.801ZM150.801 192.648H141.777V196.648H150.801V192.648ZM139.777 194.648V221H143.777V194.648H139.777ZM141.777 219H132.369V223H141.777V219ZM134.369 221V194.648H130.369V221H134.369ZM132.369 192.648H123.441V196.648H132.369V192.648ZM125.441 194.648V187.16H121.441V194.648H125.441ZM123.441 189.16H150.801V185.16H123.441V189.16ZM175.69 215.48L177.589 214.853L177.135 213.48H175.69V215.48ZM163.69 215.48V213.48H162.244L161.791 214.853L163.69 215.48ZM161.866 221V223H163.311L163.765 221.627L161.866 221ZM151.978 221L150.099 220.315L149.12 223H151.978V221ZM164.314 187.16V185.16H162.914L162.435 186.475L164.314 187.16ZM175.162 187.16L177.042 186.477L176.563 185.16H175.162V187.16ZM187.45 221V223H190.304L189.33 220.317L187.45 221ZM177.514 221L175.615 221.627L176.068 223H177.514V221ZM173.338 208.28V210.28H176.113L175.235 207.648L173.338 208.28ZM169.69 197.336L171.587 196.704L169.677 190.974L167.79 196.711L169.69 197.336ZM166.09 208.28L164.19 207.655L163.326 210.28H166.09V208.28ZM175.69 213.48H163.69V217.48H175.69V213.48ZM161.791 214.853L159.967 220.373L163.765 221.627L165.589 216.107L161.791 214.853ZM161.866 219H151.978V223H161.866V219ZM153.857 221.685L166.193 187.845L162.435 186.475L150.099 220.315L153.857 221.685ZM164.314 189.16H175.162V185.16H164.314V189.16ZM173.282 187.843L185.57 221.683L189.33 220.317L177.042 186.477L173.282 187.843ZM187.45 219H177.514V223H187.45V219ZM179.413 220.373L177.589 214.853L173.791 216.107L175.615 221.627L179.413 220.373ZM175.235 207.648L171.587 196.704L167.792 197.968L171.44 208.912L175.235 207.648ZM167.79 196.711L164.19 207.655L167.99 208.905L171.59 197.961L167.79 196.711ZM166.09 210.28H173.338V206.28H166.09V210.28ZM239.208 187.16H241.208V185.16H239.208V187.16ZM239.208 221V223H241.208V221H239.208ZM229.8 221H227.8V223H229.8V221ZM229.8 202.328H231.8L227.907 201.681L229.8 202.328ZM223.416 221V223H224.845L225.308 221.647L223.416 221ZM215.544 221L213.651 221.647L214.114 223H215.544V221ZM209.112 202.184L211.004 201.537L207.112 202.184H209.112ZM209.112 221V223H211.112V221H209.112ZM199.704 221H197.704V223H199.704V221ZM199.704 187.16V185.16H197.704V187.16H199.704ZM211.08 187.16L212.945 186.439L212.451 185.16H211.08V187.16ZM219.576 209.144L217.71 209.865L219.597 214.747L221.447 209.851L219.576 209.144ZM227.88 187.16V185.16H226.497L226.009 186.453L227.88 187.16ZM237.208 187.16V221H241.208V187.16H237.208ZM239.208 219H229.8V223H239.208V219ZM231.8 221V202.328H227.8V221H231.8ZM227.907 201.681L221.523 220.353L225.308 221.647L231.692 202.975L227.907 201.681ZM223.416 219H215.544V223H223.416V219ZM217.436 220.353L211.004 201.537L207.219 202.831L213.651 221.647L217.436 220.353ZM207.112 202.184V221H211.112V202.184H207.112ZM209.112 219H199.704V223H209.112V219ZM201.704 221V187.16H197.704V221H201.704ZM199.704 189.16H211.08V185.16H199.704V189.16ZM209.214 187.881L217.71 209.865L221.441 208.423L212.945 186.439L209.214 187.881ZM221.447 209.851L229.751 187.867L226.009 186.453L217.705 208.437L221.447 209.851ZM227.88 189.16H239.208V185.16H227.88V189.16ZM265.971 215.48L267.87 214.853L267.416 213.48H265.971V215.48ZM253.971 215.48V213.48H252.526L252.072 214.853L253.971 215.48ZM252.147 221V223H253.592L254.046 221.627L252.147 221ZM242.259 221L240.38 220.315L239.401 223H242.259V221ZM254.595 187.16V185.16H253.195L252.716 186.475L254.595 187.16ZM265.443 187.16L267.323 186.477L266.845 185.16H265.443V187.16ZM277.731 221V223H280.585L279.611 220.317L277.731 221ZM267.795 221L265.896 221.627L266.35 223H267.795V221ZM263.619 208.28V210.28H266.394L265.516 207.648L263.619 208.28ZM259.971 197.336L261.868 196.704L259.958 190.974L258.071 196.711L259.971 197.336ZM256.371 208.28L254.471 207.655L253.608 210.28H256.371V208.28ZM265.971 213.48H253.971V217.48H265.971V213.48ZM252.072 214.853L250.248 220.373L254.046 221.627L255.87 216.107L252.072 214.853ZM252.147 219H242.259V223H252.147V219ZM244.138 221.685L256.474 187.845L252.716 186.475L240.38 220.315L244.138 221.685ZM254.595 189.16H265.443V185.16H254.595V189.16ZM263.563 187.843L275.851 221.683L279.611 220.317L267.323 186.477L263.563 187.843ZM277.731 219H267.795V223H277.731V219ZM269.694 220.373L267.87 214.853L264.072 216.107L265.896 221.627L269.694 220.373ZM265.516 207.648L261.868 196.704L258.074 197.968L261.722 208.912L265.516 207.648ZM258.071 196.711L254.471 207.655L258.271 208.905L261.871 197.961L258.071 196.711ZM256.371 210.28H263.619V206.28H256.371V210.28ZM297.933 221L296.172 221.948L296.739 223H297.933V221ZM291.213 208.52L292.974 207.572L292.408 206.52H291.213V208.52ZM290.205 208.52V206.52H288.205V208.52H290.205ZM290.205 221V223H292.205V221H290.205ZM280.797 221H278.797V223H280.797V221ZM280.797 187.16V185.16H278.797V187.16H280.797ZM302.541 188.6L301.635 190.383L301.647 190.389L301.659 190.395L302.541 188.6ZM306.813 192.488L305.081 193.487L305.085 193.495L305.09 193.502L306.813 192.488ZM306.333 204.104L304.716 202.928L304.712 202.933L306.333 204.104ZM300.813 207.8L300.234 205.886L297.819 206.617L299.082 208.801L300.813 207.8ZM308.445 221V223H311.912L310.177 219.999L308.445 221ZM290.205 202.088H288.205V204.088H290.205V202.088ZM297.741 201.176L296.364 199.726L296.364 199.726L297.741 201.176ZM297.693 195.992L296.279 197.406L296.314 197.442L296.352 197.475L297.693 195.992ZM290.205 195.032V193.032H288.205V195.032H290.205ZM299.694 220.052L292.974 207.572L289.452 209.468L296.172 221.948L299.694 220.052ZM291.213 206.52H290.205V210.52H291.213V206.52ZM288.205 208.52V221H292.205V208.52H288.205ZM290.205 219H280.797V223H290.205V219ZM282.797 221V187.16H278.797V221H282.797ZM280.797 189.16H295.629V185.16H280.797V189.16ZM295.629 189.16C298.121 189.16 300.096 189.6 301.635 190.383L303.448 186.817C301.211 185.68 298.578 185.16 295.629 185.16V189.16ZM301.659 190.395C303.226 191.165 304.338 192.2 305.081 193.487L308.546 191.489C307.369 189.448 305.632 187.891 303.424 186.805L301.659 190.395ZM305.09 193.502C305.854 194.802 306.253 196.286 306.253 198.008H310.253C310.253 195.634 309.693 193.438 308.537 191.474L305.09 193.502ZM306.253 198.008C306.253 199.916 305.732 201.53 304.716 202.928L307.951 205.28C309.495 203.158 310.253 200.708 310.253 198.008H306.253ZM304.712 202.933C303.767 204.241 302.33 205.251 300.234 205.886L301.393 209.714C304.161 208.877 306.404 207.423 307.955 205.275L304.712 202.933ZM299.082 208.801L306.714 222.001L310.177 219.999L302.545 206.799L299.082 208.801ZM308.445 219H297.933V223H308.445V219ZM290.205 204.088H294.861V200.088H290.205V204.088ZM294.861 204.088C296.425 204.088 297.969 203.718 299.119 202.626L296.364 199.726C296.234 199.85 295.858 200.088 294.861 200.088V204.088ZM299.119 202.626C300.268 201.535 300.701 200.061 300.701 198.536H296.701C296.701 199.315 296.495 199.601 296.364 199.726L299.119 202.626ZM300.701 198.536C300.701 197.006 300.21 195.572 299.035 194.509L296.352 197.475C296.521 197.628 296.701 197.89 296.701 198.536H300.701ZM299.108 194.578C297.969 193.439 296.435 193.032 294.861 193.032V197.032C295.784 197.032 296.138 197.265 296.279 197.406L299.108 194.578ZM294.861 193.032H290.205V197.032H294.861V193.032ZM288.205 195.032V202.088H292.205V195.032H288.205ZM332.548 221L330.921 222.163L331.519 223H332.548V221ZM321.94 206.168L323.567 205.005L319.94 199.934V206.168H321.94ZM321.94 221V223H323.94V221H321.94ZM312.532 221H310.532V223H312.532V221ZM312.532 187.16V185.16H310.532V187.16H312.532ZM321.94 187.16H323.94V185.16H321.94V187.16ZM321.94 201.752H319.94V207.95L323.563 202.921L321.94 201.752ZM332.452 187.16V185.16H331.428L330.829 185.991L332.452 187.16ZM343.3 187.16L344.894 188.367L347.323 185.16H343.3V187.16ZM330.868 203.576L329.273 202.369L328.364 203.57L329.267 204.775L330.868 203.576ZM343.924 221V223H347.922L345.524 219.801L343.924 221ZM334.175 219.837L323.567 205.005L320.313 207.331L330.921 222.163L334.175 219.837ZM319.94 206.168V221H323.94V206.168H319.94ZM321.94 219H312.532V223H321.94V219ZM314.532 221V187.16H310.532V221H314.532ZM312.532 189.16H321.94V185.16H312.532V189.16ZM319.94 187.16V201.752H323.94V187.16H319.94ZM323.563 202.921L334.075 188.329L330.829 185.991L320.317 200.583L323.563 202.921ZM332.452 189.16H343.3V185.16H332.452V189.16ZM341.705 185.953L329.273 202.369L332.462 204.783L344.894 188.367L341.705 185.953ZM329.267 204.775L342.323 222.199L345.524 219.801L332.468 202.377L329.267 204.775ZM343.924 219H332.548V223H343.924V219ZM356.768 194.696V192.696H354.768V194.696H356.768ZM356.768 200.216H354.768V202.216H356.768V200.216ZM367.568 200.216H369.568V198.216H367.568V200.216ZM367.568 207.368V209.368H369.568V207.368H367.568ZM356.768 207.368V205.368H354.768V207.368H356.768ZM356.768 213.464H354.768V215.464H356.768V213.464ZM369.008 213.464H371.008V211.464H369.008V213.464ZM369.008 221V223H371.008V221H369.008ZM347.36 221H345.36V223H347.36V221ZM347.36 187.16V185.16H345.36V187.16H347.36ZM369.008 187.16H371.008V185.16H369.008V187.16ZM369.008 194.696V196.696H371.008V194.696H369.008ZM354.768 194.696V200.216H358.768V194.696H354.768ZM356.768 202.216H367.568V198.216H356.768V202.216ZM365.568 200.216V207.368H369.568V200.216H365.568ZM367.568 205.368H356.768V209.368H367.568V205.368ZM354.768 207.368V213.464H358.768V207.368H354.768ZM356.768 215.464H369.008V211.464H356.768V215.464ZM367.008 213.464V221H371.008V213.464H367.008ZM369.008 219H347.36V223H369.008V219ZM349.36 221V187.16H345.36V221H349.36ZM347.36 189.16H369.008V185.16H347.36V189.16ZM367.008 187.16V194.696H371.008V187.16H367.008ZM369.008 192.696H356.768V196.696H369.008V192.696ZM399.145 187.16H401.145V185.16H399.145V187.16ZM399.145 194.648V196.648H401.145V194.648H399.145ZM390.121 194.648V192.648H388.121V194.648H390.121ZM390.121 221V223H392.121V221H390.121ZM380.713 221H378.713V223H380.713V221ZM380.713 194.648H382.713V192.648H380.713V194.648ZM371.785 194.648H369.785V196.648H371.785V194.648ZM371.785 187.16V185.16H369.785V187.16H371.785ZM397.145 187.16V194.648H401.145V187.16H397.145ZM399.145 192.648H390.121V196.648H399.145V192.648ZM388.121 194.648V221H392.121V194.648H388.121ZM390.121 219H380.713V223H390.121V219ZM382.713 221V194.648H378.713V221H382.713ZM380.713 192.648H371.785V196.648H380.713V192.648ZM373.785 194.648V187.16H369.785V194.648H373.785ZM371.785 189.16H399.145V185.16H371.785V189.16Z" fill="white" mask="url(#path-4-outside-1_435_11)"/>
</svg>
