<svg id="visual" viewBox="0 0 960 540" width="960" height="540" xmlns="http://www.w3.org/2000/svg" xmlns:xlink="http://www.w3.org/1999/xlink" version="1.1"><rect x="0" y="0" width="960" height="540" fill="#0d1514"></rect><defs><linearGradient id="grad1_0" x1="43.8%" y1="100%" x2="100%" y2="0%"><stop offset="14.444444444444446%" stop-color="#0d1514" stop-opacity="1"></stop><stop offset="85.55555555555554%" stop-color="#0d1514" stop-opacity="1"></stop></linearGradient></defs><defs><linearGradient id="grad2_0" x1="0%" y1="100%" x2="56.3%" y2="0%"><stop offset="14.444444444444446%" stop-color="#0d1514" stop-opacity="1"></stop><stop offset="85.55555555555554%" stop-color="#0d1514" stop-opacity="1"></stop></linearGradient></defs><g transform="translate(960, 540)"><path d="M-324 0C-316.6 -58.6 -309.3 -117.2 -280.6 -162C-251.9 -206.8 -201.8 -237.7 -151.5 -262.4C-101.2 -287.1 -50.6 -305.5 0 -324L0 0Z" fill="#14312b"></path></g><g transform="translate(0, 0)"><path d="M324 0C319.4 63.3 314.8 126.7 280.6 162C246.4 197.3 182.7 204.6 131 226.9C79.3 249.2 39.7 286.6 0 324L0 0Z" fill="#14312b"></path></g></svg>