<svg id="visual" viewBox="0 0 960 540" width="960" height="540" xmlns="http://www.w3.org/2000/svg" xmlns:xlink="http://www.w3.org/1999/xlink" version="1.1"><rect width="960" height="540" fill="#080D0C"></rect><g><g transform="translate(402 475)"><path d="M102.2 -62.9C121 -26.3 117.1 19.5 96.2 53.7C75.4 87.9 37.7 110.4 -1.2 111.1C-40.1 111.8 -80.2 90.6 -101.8 56C-123.3 21.4 -126.3 -26.6 -106.3 -63.8C-86.2 -101.1 -43.1 -127.4 -0.7 -127C41.7 -126.6 83.3 -99.4 102.2 -62.9Z" fill="none" stroke="#0f1814" stroke-width="20"></path></g><g transform="translate(169 175)"><path d="M48.4 -28C57.6 -11.9 56.6 10.1 46.8 27.8C37 45.5 18.5 59 -2 60.1C-22.6 61.3 -45.1 50.2 -56.5 31.5C-67.9 12.9 -68.1 -13.3 -56.8 -30.5C-45.5 -47.7 -22.8 -56 -1.6 -55.1C19.6 -54.2 39.1 -44 48.4 -28Z" fill="none" stroke="#0f1814" stroke-width="20"></path></g><g transform="translate(760 233)"><path d="M68 -35.5C81.5 -15.9 81.1 15.4 67.5 40.1C53.9 64.9 26.9 83.2 0.1 83.2C-26.7 83.1 -53.4 64.7 -68.6 39C-83.7 13.3 -87.3 -19.6 -74 -39C-60.6 -58.5 -30.3 -64.5 -1.5 -63.6C27.3 -62.7 54.5 -55 68 -35.5Z" fill="none" stroke="#0f1814" stroke-width="20"></path></g><g transform="translate(28 538)"><path d="M57.8 -32.4C68.7 -14.5 67 11.6 55.2 29.9C43.5 48.2 21.7 58.8 -0.7 59.2C-23.1 59.6 -46.2 49.8 -55.3 33C-64.4 16.1 -59.6 -7.7 -48 -26C-36.5 -44.3 -18.3 -56.9 2.6 -58.5C23.5 -60 46.9 -50.3 57.8 -32.4Z" fill="none" stroke="#0f1814" stroke-width="20"></path></g></g></svg>